<?xml version="1.0" encoding="UTF-8"?>
<svg id="Layer_1" data-name="Layer 1" xmlns="http://www.w3.org/2000/svg" xmlns:xlink="http://www.w3.org/1999/xlink" viewBox="0 0 274.3766087759 71.9361572266">
  <defs>
    <mask id="mask" x="0" y="0" width="72.0159520376" height="72" maskUnits="userSpaceOnUse">
      <g id="mask-2">
        <polygon id="path-1" points=".0159520376 0 72.0159520376 0 72.0159520376 72 .0159520376 72 .0159520376 0" style="fill: #fff; fill-rule: evenodd; stroke-width: 0px;"/>
      </g>
    </mask>
    <mask id="mask-1" x="0" y="0" width="72.0159520376" height="72" maskUnits="userSpaceOnUse">
      <g id="mask-2-2" data-name="mask-2">
        <polygon id="path-1-2" data-name="path-1" points=".0159520376 0 72.0159520376 0 72.0159520376 72 .0159520376 72 .0159520376 0" style="fill: #fff; fill-rule: evenodd; stroke-width: 0px;"/>
      </g>
    </mask>
  </defs>
  <g id="Logos_United-Logo_Rebrand_Large" data-name="Logos/United-Logo_Rebrand_Large">
    <g id="Group">
      <g id="united_globe_4p_h_rgb_r_21Apr2022" data-name="united globe 4p h rgb r 21Apr2022">
        <g style="mask: url(#mask);">
          <path id="Fill-1" d="m15.9570893515,9.1930913925c-5.446557045,0-10.7966051102.9371585846-15.9012572207,2.7851400375l-.0558321308.0202169418v1.9112920761c.3086719383-.1199712753.8377478588-.2968683243,1.6098264921-.4758939743.3894956112-.0859222412.7755348682-.1641292572,1.1567885876-.2285041809.1273505688-.0215463638.2693235874-.0406999588.4054477215-.0609169006,4.9999008179-.7153043747,9.3029623032.3019237518,11.8885221481,3.270611763,5.6571245193,6.4933395386.9693517685,19.8316898346-10.4703860283,29.7911586761-1.4577503204,1.2688751221-2.9540516138,2.4180450439-4.4684316963,3.4501686096-.0401459634.0268669128-.0808236618.0526695251-.1217672247.0792732239v3.179901123c.4596845675-.3170852661.9183056224-.6400260925,1.3737363089-.9773292542.6221294403,1.0528755188,4.7643418312,7.6704444885,4.8377213478,7.7819023132.3081402779-.1987113953,1.2011885643-.7682418823,2.2835345268-1.5037651062,1.2463855743-.8565559387,2.7211513519-1.9253883362,4.090634346-3.0612602234.0614147186-.0534667969.1222982407-.1072006226.1807889938-.1598701477l-6.3265776634-7.2581253052c.6415376663-.6299133301,2.7828326225-2.7598686218,4.4833197594-4.7855453491.3980035782.3083076477,5.6701526642,4.3955726624,7.7774162292,6.2869148254,1.6709766388-1.8197860718,3.1866855621-3.7028808594,4.5285186768-5.6213531494-2.9061965942-1.9075698853-8.9405860901-5.352684021-8.9405860901-5.352684021,1.0057754517-1.5915489197,1.8658561707-3.1860198975,2.5693416595-4.7608070374,0,0,7.0383052826,2.7529525757,9.9083423615,4.1665382385.7547969818-1.5322265625,1.3928794861-3.0700416565,1.9030780792-4.6012039185.0749740601-.2263755798.1470241547-.4511528015.2164154053-.6746025085-3.5644817352-1.4449748993-9.9280166626-2.962305069-10.5046825409-3.098236084.3762016296-1.3750133514.6213321686-2.7159786224.725019455-4.0037403107,5.1509132385.5112743378,9.8713874817,1.6910362244,10.848449707,1.9450759888.1448974609-1.4907283783.1265525818-2.9035148621-.0571613312-4.2223987579-5.7493801117-1.0355834961-10.2635402679-1.044095993-10.8527030945-1.0398406982-.1305408478-1.0212173462-.3684921265-1.9921588898-.7199687958-2.900056839.0034561157,0,5.1011962891-.4463672638,10.4310379028.1771640778-.275970459-.5522403717-.6314353943-1.1810913086-.9794559479-1.6875762939-.2754383087-.4019432068-.8885269165-1.1494369507-.8885269165-1.1494369507,0,0-4.5056533813-.3394298553-9.7275543213.4431762695-.498500824-.7158374786-1.0533657074-1.3117027283-1.6114206314-1.8067502975.1066122055-.0250053406,4.050488472-.9400844574,8.8142976761-.9222621918-1.3125858307-.9012470245-2.6748905182-1.5061569214-2.6748905182-1.5061569214v-.0005321503c-3.6867809296.0720891953-7.553024292,1.098361969-7.8606319427,1.1810913086-1.0528345108-.6179447174-1.8730354309-.8671970367-1.9756603241-.8969907761-.0029249191-.0013303757-.0058488846-.0023937225-.0090389252-.0037240982.0031900406-.0010643005.0045194626-.0029258728.007443428-.0039901733.296708107-.0907096863,3.1441469193-.9520549774,5.2312059402-1.1786966324,0,0-.0042552948-.0007982254-.0082416534-.0007982254-2.8397293091-.3721504211-6.7469148636.5189886093-7.1978263855.6251268387-.6109628677-.1215667725-1.4574842453-.2324943542-2.0793480873-.2910165787,0,0,2.1046061516-.6094322205,4.8879704475-.9996709824,2.5345125198-.3548593521,11.03216362-1.3994865417,16.4617061615,5.9118385315,5.1410770416,6.9234809875,3.2720279694,17.6682167053-3.7059249878,27.9727058411-1.8408641815,2.7670516968-4.0467662811,5.4976577759-6.5871276855,8.1043052673-2.137840271,2.2219924927-4.303062439,4.146320343-6.3677883148,5.7868156433-3.2215137482,2.5760536194-6.6828403473,4.8057632446-10.2497158051,6.5630340576-.7438967228.3955612183-1.489654541.7671737671-2.2351464499,1.1262893677v3.3498840332c5.964466976-2.8239746094,9.4975775946-5.5130844116,9.4975775946-5.5130844116l5.0214357376,7.1320343018s3.8912334442-2.436668396,7.7949638367-5.6522140503l.0005302429-.0005340576c-.0005302429-.0005340576-.0010623932-.0005340576-.0015945435-.0013275146l-6.017906189-6.8144187927c-.0005321503-.0005302429-.0010643005-.0010643005-.0010643005-.0010643005,2.2962970734-2.038444519,4.3947868347-4.1675987244,6.2787227631-6.3531494141,0,0,6.242565155,5.5442085266,6.9258441925,6.1980667114,1.9804439545-2.2339630127,3.8000392914-4.5841751099,5.4135875702-7.0306854248-3.2483654022-2.5811080933-7.4830989838-5.4896774292-7.5469074249-5.5338363647l-.0023937225-.0018615723v.0005340576l-.0005302429-.0005340576s2.5446147919-4.0702400208,3.5788383484-6.5553207397c0,0,4.118019104,2.2488594055,8.0084571838,4.7780990601.9515380859-2.1296882629,1.7435569763-4.3410415649,2.3074607849-6.5986824036-2.5544548035-1.5420684814-8.238697052-4.0816802979-8.238697052-4.0816802979.4876022339-1.9118232727.7773971558-3.7829494476.8606147766-5.588634491,0,0,4.1326408386,1.3117027283,8.2963867188,3.4006900787.0643424988-1.7519512177-.0467910767-3.4831542969-.3517417908-5.1579627991-3.5251350403-1.6934280396-8.2163619995-2.84233284-8.2163619995-2.84233284-.248588562-1.414648056-.6540336609-2.7747650146-1.2203330994-4.0447044373,0,0,4.2669067383.798034668,8.034778595,2.3286647797-.9446296692-2.0865936279-2.1000862122-3.275932312-2.1000862122-3.275932312-2.41381073-1.3242034912-7.9111480713-2.3276004791-7.9111480713-2.3276004791-.594745636-.7552061081-1.2740364075-1.4779586792-1.9886875153-2.1060123444,1.7289352417.238612175,4.4240322113.8509712219,4.4240322113.8509712219-2.9628257751-1.4500293732-6.3029174805-2.2879648209-6.3425312042-2.2975416183-.0042533875-.0029258728-.6622753143-.4354610443-1.4529647827-.8570890427,0,0,8.2849559784,1.698217392,12.7874202728,5.0941200256.4083709717.3083076477.7970695496.6511955261,1.1953392029,1.0315933228.4541015625.4343967438.8499755859.9222602844,1.2001228333,1.401348114,8.9677047729,12.2774944305,1.2107620239,35.9394836426-20.6483154297,52.4872589111h8.131816864c-.4463920593-.4950485229-1.5372447968-1.7051315308-1.6587467194-1.8415985107,2.5595054626-2.3603210449,4.9698581696-4.9246673584,7.1677837372-7.6464996338l5.4109306335,5.3907241821.0007972717-.0021286011c2.1194953918-2.4132537842,4.0847854614-4.9940986633,5.8214302063-7.7052879333,0,0-2.8426513672-2.7290115356-5.8674240112-5.361995697,2.4294929504-3.9273910522,3.9292526245-7.840423584,3.9292526245-7.840423584.2318344116.1715774536,3.1773796082,2.3611183167,6.1989593506,5.1752548218,1.4588165283-3.1982574463,2.3624992371-7.2650413513,2.3624992371-7.2650413513-3.1484031677-2.8697319031-6.379486084-4.9172210693-6.379486084-4.9172210693.4838790894-2.1698570251.7885627747-4.4016914368.8513069153-6.6058616638,0,0,3.4219779968,2.0328598022,6.3784217834,4.6352500916.0273857117-1.9277877808-.1401138306-3.8531761169-.5460929871-5.7328147888-2.9335784912-2.5417404175-6.1923141479-4.2428836823-6.1923141479-4.2428836823-.0007972717-.0034580231-.3142547607-2.1342086792-1.3577842712-4.7070732117.0074462891.0042572021.0156860352.0079803467.0233955383.0114383698.2015304565.1002864838,1.7565879822.8924694061,4.5029945374,2.8500480652-2.1410293579-2.7808837891-5.8288726807-5.5176105499-5.8288726807-5.5176105499-.3522758484-.599855423-.7590522766-1.1912002563-1.2041130066-1.7655181885,3.0290260315,2.0703678131,5.7929801941,4.5030422211,8.2336425781,7.2323207855.9050140381,1.1358680725,1.7371788025,2.5816402435,2.3787155151,4.2399559021.1760025024.4532833099.3272819519.9044399261.4612808228,1.3516044617,2.0072975159,6.7798347473.7734069824,14.4018630981-1.4933776855,20.6427574158-2.612411499,7.1932182312-6.9612045288,13.9113388062-12.0650596619,19.6226043701h9.6262588501c.9313316345-1.3234100342,1.7701454163-2.5848312378,2.6307563782-4.033531189-.642868042-.9775924683-3.5719261169-4.4067459106-3.5719261169-4.4067459106,1.6119537354-2.6383018494,3.0635871887-5.4912757874,4.2102737427-8.3272247314,0,0,1.9594421387,2.168258667,3.4934959412,4.4003601074,1.5074691772-3.6097755432,2.2112197876-7.3775596619,2.2112197876-7.3775596619-1.034488678-1.727481842-3.3456764221-4.405418396-3.3456764221-4.405418396.4921226501-2.2757263184.7981338501-4.6312599182.8393440247-6.9857254028,1.1570549011,1.3816604614,2.7174301147,3.5677452087,2.7174301147,3.5677452087,0,0-.0007972717-.0053215027-.0013275146-.0133018494-.2948493958-4.2825202942-2.5031433105-8.1777229309-2.9928703308-8.9943809509-.0135574341-.0811309814-.0289802551-.168384552-.048122406-.267074585-.2882003784-1.4848747253-.8087654114-3.1466503143-1.0802192688-3.9662322998,2.4847984314,3.6685638428,4.0807991028,7.7909469604,4.0807991028,7.7909469604,1.0227928162,2.6524009705,1.6350822449,6.002281189,1.6350822449,9.648235321,0,1.9301795959-.3865699768,12.0037689209-8.0767822266,23.3699073792h2.4329528809c1.4266433716-2.6726150513,3.0085525513-5.9953689575,4.067237854-8.8177490234.0005302429.0010643005.0010643005.0029258728.0015945435.004524231.0340309143.0901756287.5617790222,1.4859390259.9547309875,2.9359664917.8164787292-2.886756897,1.3997917175-5.8881645203,1.722820282-8.9776229858l.0005302429-.0018615723c-.1012954712-.4006118774-.3185081482-1.0496788025-.4410743713-1.4452400208,0,0,.5216331482-2.6228713989.728477478-5.6157684326.281288147,2.0541419983.4275131226,4.1412658691.4275131226,6.2512702942,0,3.6552658081-.4315032959,7.2429618835-1.2665901184,10.7072296143-.4296417236,1.7072601318-.9531364441,3.3863220215-1.5215606689,4.9592514038h2.0766906738c1.7268066406-4.9866485596,2.6193237305-10.2406425476,2.6193237305-15.5220375061,0-26.0377349854-21.0925827026-47.2210283279-47.0180988312-47.2210283279ZM0,40.3010063171v6.2786712646c1.1105276812-.7200965881,2.2234482039-1.5229187012,3.3156310786-2.4031486511l-3.3156310786-3.8755226135ZM1.5125190485,14.3015756607c-.5176436305.3471450806-1.0201328099.7166347504-1.5125190485,1.1052780151v1.4604024887c1.2998252381-1.0329217911,2.9660155047-2.1512346268,4.4102067221-2.9758701324-.9331941605.0606508255-1.9012169838.1968488693-2.8976876736.4101896286Zm4.2395198345,24.7324171066c-1.695435524-1.1869430542-5.7475191392-4.0191650391-5.752038883-4.0223579407v-3.4371356964c2.9232110251-4.1630783081,3.3459400404-8.9409122467.7797887791-11.2733001709-.2414075136-.2194595337-.5024891794-.4067325592-.7797887791-.5692653656v-1.7123146057l.0449315738.0263347626s3.664714817-2.9021854401,6.5762274303-4.1529712677c.7018899918.0508079529,1.374268055.1492319107,2.0144762993.2960700989-4.3506522179,1.8466529846-7.5628607273,4.1370105743-7.7853916883,4.2976818085.4466570616.2646808624.8539657593.5963973999.907405138.6400241852.0560979843-.0353794098,4.2740827799-2.6747455597,8.9163919687-4.2567167282.6295728683.2880907059,1.2384090424.6466741562,1.7648267746,1.0523424149-5.0546693802,1.4212989807-9.9139258862,3.9593143463-9.9139258862,3.9593143463.2738435268.3186817169.5152509212.663433075.7239568233,1.032125473.0327017307-.0130348206.0630104542-.0250053406.086140871-.0348472595,5.1737773418-2.2153453827,10.6708495617-3.3509483337,10.6708495617-3.3509483337.4299077988.5894813538.7840433121,1.2473278046,1.0546960831,1.9724750519,0,0-4.9334335327.5644779205-11.2799520493,2.6007957458.2802243233.877571106.3570599556,1.537279129.357591629,1.543132782,0,0,5.9830780029-1.3391017914,11.5006217957-1.487537384.0771017075.886882782.0494508743,1.8822975159-.0773677826,2.9037818909-3.268040657-.1723747253-11.0518374443.2420711517-11.3575849533.2660121918,0,0-.0281820297,1.1217689514-.3195724487,2.1778354645,0,0,5.6874332428.1824836731,10.8609447479,1.1475734711-.4001302719,1.2396125793-.9108610153,2.4616699219-1.5167722702,3.6552639008-3.4475011826-1.0361156464-8.680036068-2.2946147919-10.0564308167-2.6109027863-.3626430035.892999649-.8175420761,1.7788181305-1.3575184345,2.6367053986,0,0,6.3930447102,2.7912597656,8.8464682102,4.1566963196h.005317688l-.001329422.0023956299c-1.0647983551,1.5958023071-3.1757850647,3.8281707764-3.1757850647,3.8281707764-.6120262146-.4578056335-1.1910853386-.8863525391-1.7371768951-1.2864341736h0Z" style="fill: #fff; fill-rule: evenodd; stroke-width: 0px;"/>
        </g>
        <g style="mask: url(#mask-1);">
          <path id="Fill-3" d="m15.9570893515,9.1930913925c25.9255161285,0,47.0180988312,21.1832933426,47.0180988312,47.2212953568,0,5.2811279297-.8925170898,10.5351219177-2.6193237305,15.5217704773h11.5407714844V0H0v11.9984483719l.0560980011-.0202169418c5.1043862402-1.8479814529,10.4544343054-2.7851400375,15.9009913504-2.7851400375ZM0,31.5744991302c2.9232110251-4.1630783081,3.3459400404-8.9409122467.7797887791-11.2733001709-.2414075136-.2194595337-.5024891794-.4067325592-.7797887791-.5692653656v11.8425655365Zm15.0605849493-15.1594619751c-2.585559845-2.9686880112-6.8886213303-3.9859161377-11.8885221481-3.270611763-.1361241341.0202169418-.2780971527.0393705368-.4054477215.0609169006-.3812537193.0643749237-.7672929764.1425819397-1.1567885876.2285041809-.7720786333.17902565-1.3011545539.355922699-1.6098264921.4758939743v1.4971132278c.4923862386-.3883771896.994875418-.7581329346,1.5125190485-1.1052780151.9964706898-.2133407593,1.9644935131-.3495388031,2.8976876736-.4101896286-1.4441912174.8246355057-3.110381484,1.9429483414-4.4102067221,2.9758701324v1.1523628235l.0449315738.0263347626s3.664714817-2.9021854401,6.5762274303-4.1529712677c.7018899918.0508079529,1.374268055.1492319107,2.0144762993.2960700989-4.3506522179,1.8466529846-7.5628607273,4.1370105743-7.7853916883,4.2976818085.4466570616.2646808624.8539657593.5963973999.907405138.6400241852.0560979843-.0353794098,4.2740827799-2.6747455597,8.9163919687-4.2567167282.6295728683.288356781,1.2384090424.6466741562,1.7648267746,1.0523424149-5.0546693802,1.4212989807-9.9139258862,3.9593143463-9.9139258862,3.9593143463.2738435268.3186817169.5152509212.663433075.7239568233,1.032125473.0327017307-.0130348206.0630104542-.0250053406.086140871-.0348472595,5.1737773418-2.2150783539,10.6708495617-3.3509483337,10.6708495617-3.3509483337.4299077988.5894813538.7840433121,1.2473278046,1.0546960831,1.9724750519,0,0-4.9334335327.5644779205-11.2799520493,2.6007957458.2802243233.877571106.3570599556,1.537279129.357591629,1.543132782,0,0,5.9830780029-1.3391017914,11.5008878708-1.487537384.0768356323.886882782.0491847992,1.8822975159-.0776338577,2.9037818909-3.268040657-.1723747253-11.0518374443.2420711517-11.3575849533.2660121918,0,0-.0281820297,1.1217689514-.3195724487,2.1778354645,0,0,5.6874332428.1824836731,10.8609447479,1.1475734711-.4001302719,1.2396125793-.9108610153,2.4616699219-1.5167722702,3.6552639008-3.4475011826-1.0361156464-8.680036068-2.2946147919-10.0564308167-2.6109027863-.3626430035.892999649-.8175420761,1.7788181305-1.3575184345,2.6367053986,0,0,6.3933107853,2.7912597656,8.8464682102,4.1566963196h.005317688l-.001329422.0023956299c-1.06453228,1.5958023071-3.1757850647,3.8281707764-3.1757850647,3.8281707764-.6120262146-.4578056335-1.1910853386-.8863525391-1.7371768951-1.2864341736-1.695435524-1.1869430542-5.7475191392-4.0191650391-5.752038883-4.0223579407v5.2893714905l3.3156310786,3.8755226135c-1.0921828747.88022995-2.2051033974,1.683052063-3.3156310786,2.4031486511v3.155960083c.040943563-.0266036987.0816212613-.052406311.1217672247-.0792732239,1.5143800825-1.0321235657,3.0106813759-2.1812934875,4.4684316963-3.4501686096,11.4397377968-9.9594688416,16.1275105476-23.2978191376,10.4703860283-29.7911586761Zm14.0851182938.5509090424c-5.4295425415-7.3113250732-13.9271936417-6.2666978836-16.4617061615-5.9118385315-2.783364296.3902387619-4.8879704475.9996709824-4.8879704475.9996709824.621863842.0585222244,1.4683852196.1694498062,2.0793480873.2910165787.4509115219-.1061382294,4.3580970764-.9972772598,7.1978263855-.6251268387.0039863586,0,.0082416534.0007982254.0082416534.0007982254-2.087059021.226641655-4.9344978333,1.0879869461-5.2314710617,1.1786966324-.002658844.0010643005-.003988266.0029258728-.0071783066.0039901733.0031900406.0013303757.006114006.0023937225.0090389252.0037240982.1026248932.0297937393.9228258133.2790460587,1.9756603241.8969907761.3076076508-.0827293396,4.1738510132-1.1087360382,7.8606319427-1.1810913086v.0005321503s1.3623046875.6049098969,2.6748905182,1.5061569214c-4.7638092041-.0178222656-8.7076854706.8972568512-8.8142976761.9222621918.558054924.4950475693,1.1129198074,1.0909128189,1.6114206314,1.8067502975,5.2219009399-.7826061249,9.7275543213-.4431762695,9.7275543213-.4431762695,0,0,.6130886078.7474937439.8885269165,1.1494369507.3480205536.5064849854.7034854889,1.1353359222.9794559479,1.6875762939-5.3298416138-.6235313416-10.4275817871-.1771640778-10.4310379028-.1771640778.3514766693.9078979492.589427948,1.8791065216.7199687958,2.900056839.5891628265-.0042552948,5.1033229828.0042572021,10.8527030945,1.0398406982.183713913,1.3188838959.2020587921,2.7316703796.0571613312,4.2223987579-.9770622253-.2540397644-5.6975364685-1.433801651-10.848449707-1.9450759888-.1036872864,1.288028717-.3488178253,2.6287269592-.725019455,4.0037403107.5766658783.135931015,6.9402008057,1.6532611847,10.5046825409,3.098236084-.0691242218.223449707-.1414413452.4482269287-.2164154053.6746025085-.5101985931,1.531162262-1.1482810974,3.068977356-1.9030780792,4.6012039185-2.8700370789-1.4135856628-9.9083423615-4.1665382385-9.9083423615-4.1665382385-.7034854889,1.5747871399-1.5635662079,3.1692581177-2.5693416595,4.7608070374,0,0,6.0343894958,3.4451141357,8.9405860901,5.352684021-1.3418331146,1.91847229-2.857542038,3.8015670776-4.5285186768,5.6213531494-2.1072635651-1.8913421631-7.3794126511-5.9786071777-7.7774162292-6.2869148254-1.7004871368,2.0256767273-3.841782093,4.155632019-4.4833197594,4.7855453491l6.3265776634,7.2581253052c-.0584907532.0526695251-.1193742752.1064033508-.1807889938.1598701477-1.3692169189,1.1358718872-2.8442487717,2.2047042847-4.090634346,3.0612602234-1.0823459625.7355232239-1.9751286507,1.3050537109-2.2835345268,1.5037651062-.0733795166-.1114578247-4.2155919075-6.7290267944-4.8377213478-7.7819023132-.4554306865.3373031616-.9140517414.660243988-1.3737363089.9773292542v13.6035575867c.7454919089-.3591156006,1.4909837712-.7307281494,2.2351464499-1.1262893677,3.5668754578-1.757270813,7.0282020569-3.9869804382,10.2497158051-6.5630340576,2.0647258759-1.6404953003,4.2299480438-3.5648231506,6.3677883148-5.7865486145,2.5403614044-2.6069145203,4.746263504-5.3375205994,6.5871276855-8.1045722961,6.9779529572-10.3044891357,8.8470020294-21.0492248535,3.7059249878-27.9727058411Zm11.0874614716,2.4829521179c-.3501472473-.4788208008-.7460212708-.9669513702-1.2001228333-1.401348114-.3982696533-.3803977966-.7869682312-.723285675-1.1953392029-1.0315933228-4.5024642944-3.3959026337-12.7874202728-5.0941200256-12.7874202728-5.0941200256.7906894684.4216279984,1.4487113953.8541631699,1.4529647827.8570890427.0393486023.0095767975,3.3797054291.8475122452,6.3425312042,2.2975416183,0,0-2.6950969696-.6123590469-4.4240322113-.8509712219.7146511078.6280536652,1.3939418793,1.3508062363,1.9886875153,2.1060123444,0,0,5.4973373413,1.0033969879,7.9111480713,2.3276004791,0,0,1.155456543,1.1893386841,2.1000862122,3.275932312-3.7678718567-1.5306301117-8.034778595-2.3286647797-8.034778595-2.3286647797.5662994385,1.2699394226.9717445374,2.6300563812,1.2203330994,4.0447044373,0,0,4.6912269592,1.1489048004,8.2163619995,2.84233284.3049507141,1.6748085022.4160842896,3.4060115814.3517417908,5.1579627991-4.1637458801-2.0889873505-8.2963867188-3.4006900787-8.2963867188-3.4006900787-.0832176208,1.8056850433-.3730125427,3.6768112183-.8606147766,5.588634491,0,0,5.6842422485,2.5398788452,8.238697052,4.0816802979-.5639038086,2.2576408386-1.355922699,4.4689941406-2.3074607849,6.5986824036-3.8904380798-2.5292396545-8.0084571838-4.7780990601-8.0084571838-4.7780990601-1.0342235565,2.485080719-3.5788383484,6.5553207397-3.5788383484,6.5553207397l.0005302429.0005340576v-.0005340576l.0023937225.0018615723c.0638084412.0441589355,4.2985420227,2.9527282715,7.5469074249,5.5338363647-1.6135482788,2.4465103149-3.4331436157,4.7967224121-5.4135875702,7.0306854248-.6832790375-.6538581848-6.9258441925-6.1980667114-6.9258441925-6.1980667114-1.8839359283,2.1855506897-3.9824256897,4.314704895-6.2787227631,6.3531494141,0,0,.0005321503.0005340576.0010643005.0010643005l6.017906189,6.8144187927c.0005321503.000793457.0010643005.000793457.0015945435.0013275146l-.0005302429.0005340576c-3.9037303925,3.2155456543-7.7949638367,5.6522140503-7.7949638367,5.6522140503l-5.0214357376-7.1320343018s-3.5331106186,2.6891098022-9.4975775946,5.5130844116v2.0671768188h19.584849285c21.8590774536-16.5477752686,29.6160202026-40.2097644806,20.6483154297-52.4872589111Zm-1.3883590698,52.4872589111c5.1038551331-5.711265564,9.4526481628-12.4293861389,12.0653266907-19.6226043701,2.2665176392-6.2408943176,3.5004081726-13.8629226685,1.4931106567-20.6427574158-.134262085-.4471645355-.2855415344-.8983211517-.4612808228-1.3516044617-.6415367126-1.6583156586-1.4737014771-3.1040878296-2.3787155151-4.2396907806-2.440662384-2.7295436859-5.2046165466-5.1622180939-8.2336425781-7.232585907.44506073.5743179321.8518371582,1.1656627655,1.2041130066,1.7655181885,0,0,3.6878433228,2.7367267609,5.8288726807,5.5176105499-2.7464065552-1.9575786591-4.3014640808-2.7497615814-4.5029945374-2.8500480652-.0077095032-.0034580231-.0159492493-.0071811676-.0233955383-.0114383698,1.0435295105,2.5728645325,1.3569869995,4.7036151886,1.3577842712,4.7070732117,0,0,3.2587356567,1.7011432648,6.1923141479,4.2428836823.4059791565,1.8796386719.5734786987,3.8050270081.5460929871,5.7328147888-2.9564437866-2.6023902893-6.3784217834-4.6352500916-6.3784217834-4.6352500916-.0627441406,2.2041702271-.3674278259,4.4360046387-.8513069153,6.6058616638,0,0,3.2310829163,2.0474891663,6.379486084,4.9172210693,0,0-.9036827087,4.066783905-2.3624992371,7.2650413513-3.0215797424-2.8141365051-5.967124939-5.0036773682-6.1989593506-5.1752548218,0,0-1.4997596741,3.9130325317-3.9292526245,7.840423584,3.024772644,2.6329841614,5.8674240112,5.361995697,5.8674240112,5.361995697-1.7366447449,2.71118927-3.7019348145,5.2920341492-5.8216972351,7.7052879333l-.0005302429.0021286011-5.4109306335-5.3907241821c-2.1979255676,2.7218322754-4.6082782745,5.2861785889-7.1677837372,7.6464996338.1215019226.13646698,1.21235466,1.3465499878,1.6587467194,1.8415985107h11.1281394958Zm9.6262588501,0h2.7014770508c7.6902122498-11.3661384583,8.0767822266-21.4397277832,8.0767822266-23.3699073792,0-3.6459541321-.6122894287-6.9955711365-1.6350822449-9.648235321,0,0-1.5960006714-4.1223831177-4.0807991028-7.7909469604.2714538574.8195819855.7920188904,2.4813575745,1.0802192688,3.9662322998.0191421509.098690033.0345649719.1859436035.048122406.267074585.4897270203.81665802,2.6980209351,4.7118606567,2.9928703308,8.9943809509.0005302429.0079803467.0013275146.0133018494.0013275146.0133018494,0,0-1.5603752136-2.1860847473-2.7174301147-3.5677452087-.0412101746,2.3544654846-.3472213745,4.7099990845-.8393440247,6.9857254028,0,0,2.3111877441,2.677936554,3.3456764221,4.405418396,0,0-.7037506104,3.7677841187-2.2112197876,7.3775596619-1.5340538025-2.2321014404-3.4934959412-4.4003601074-3.4934959412-4.4003601074-1.146686554,2.8359489441-2.5983200073,5.6889228821-4.2102737427,8.3272247314,0,0,2.929058075,3.4291534424,3.5719261169,4.4067459106-.8606109619,1.4486999512-1.6994247437,2.7101211548-2.6307563782,4.033531189Zm5.1344299316,0c1.4266433716-2.6726150513,3.0085525513-5.9953689575,4.0669708252-8.8177490234.0007972717.0010643005.0013313293.0029258728.0018615723.004524231.0340309143.0901756287.5617790222,1.4859390259.9547309875,2.9359664917.8164787292-2.886756897,1.3997917175-5.8881645203,1.722820282-8.9776229858l.0005302429-.0018615723c-.1012954712-.4006118774-.3185081482-1.0496788025-.4410743713-1.4452400208,0,0,.5216331482-2.6228713989.728477478-5.6157684326.281288147,2.0541419983.4275131226,4.1412658691.4275131226,6.2512702942,0,3.6552658081-.43176651,7.2429618835-1.2665901184,10.7072296143-.4296417236,1.7072601318-.9531364441,3.3863220215-1.5215606689,4.9592514038h-4.6736793518Z" style="fill: #1414d2; fill-rule: evenodd; stroke-width: 0px;"/>
        </g>
      </g>
      <path id="Shape" d="m93.0159520376,36.4545440674v-11.4545440674h6.6594924927v11.1195869446c0,4.2776069641,2.0321731567,6.078704834,5.942741394,6.078704834s5.9427337646-1.8010978699,5.9427337646-6.078704834v-11.1195869446h6.6595001221v11.4545440674c0,8.0033569336-4.0478820801,11.4545478821-12.6022338867,11.4545478821-8.554359436,0-12.6022338867-3.4511909485-12.6022338867-11.4545478821h0Zm55.1790466309,1.611656189l-12.404510498-13.0662002563h-6.568862915v22.4505805969h6.200881958v-14.2303237915l13.5359344482,14.2303237915h5.4374389648v-22.4505805969h-6.200881958v13.0662002563h0Zm17.8117523193,9.3871231079h6.6594848633v-22.4533233643h-6.6594848633v22.4533233643Zm82.5227813721-22.4505786896h12.8329162598c8.9223327637,0,13.0141601562,3.8740100861,13.0141601562,11.2266635895s-4.0945739746,11.2266616821-13.0141601562,11.2266616821h-12.8329162598v-22.4560699463.0027446747Zm6.6594848633,16.4103107452h5.9262695312c4.3389587402,0,6.2942504883-1.5869407654,6.2942504883-5.1863937378,0-3.5994491577-1.955291748-5.1863937378-6.2942504883-5.1863937378h-5.9262695312v10.3727874756Zm-32.1715240479-2.8032341003h13.8407745361v-4.7663192749h-13.8407745361v-3.3441123962h14.9090423584v-5.4993896484h-21.5712738037v22.4505805969h21.6920928955v-5.4993896484h-15.0326080322v-3.3441123962l.002746582.0027427673Zm-40.4814758301-7.5695533752h8.6449890137v16.4103126526h6.6594848633v-16.4103126526h8.6449890137v-6.0402679443h-23.9522094727v6.0402679443h.002746582Z" style="fill: #1414d2; stroke-width: 0px;"/>
    </g>
  </g>
</svg>