<svg xmlns="http://www.w3.org/2000/svg" width="600" height="1000" viewBox="0 0 600 1000"><rect width="100%" height="100%" fill="#DDDDDD"/><path fill="#999999" d="m151.185 474.335-15.23 18.63-1.78 2.21q1.49-.75 3.22-1.16 1.72-.41 3.71-.41 2.91 0 5.66.96t4.84 2.9q2.1 1.93 3.38 4.81 1.27 2.87 1.27 6.7 0 3.59-1.31 6.73t-3.69 5.49q-2.38 2.34-5.73 3.69-3.36 1.35-7.41 1.35-4.11 0-7.38-1.32-3.27-1.31-5.57-3.67-2.31-2.36-3.54-5.68-1.22-3.32-1.22-7.37 0-3.62 1.47-7.43 1.48-3.82 4.56-7.94l12.25-16.43q.64-.86 1.87-1.46 1.22-.6 2.82-.6zm-13.24 44.73q2.09 0 3.85-.71t3.02-1.99 1.97-3 .71-3.75q0-2.2-.68-3.95-.67-1.76-1.92-2.99-1.24-1.22-2.98-1.86t-3.83-.64q-2.1 0-3.8.71t-2.91 1.97-1.88 2.98q-.68 1.72-.68 3.71 0 2.13.59 3.89.58 1.76 1.74 3 1.15 1.24 2.86 1.93 1.7.7 3.94.7m60.06-19.07q0 6.71-1.44 11.67-1.43 4.95-3.97 8.18t-6 4.81-7.47 1.58q-4.02 0-7.44-1.58-3.43-1.58-5.95-4.81t-3.94-8.18q-1.42-4.96-1.42-11.67 0-6.74 1.42-11.68 1.42-4.93 3.94-8.16t5.95-4.81q3.42-1.58 7.44-1.58 4.01 0 7.47 1.58t6 4.81 3.97 8.16q1.44 4.94 1.44 11.68m-9.05 0q0-5.57-.82-9.23-.81-3.65-2.18-5.82-1.37-2.16-3.14-3.03-1.78-.87-3.69-.87-1.89 0-3.64.87-1.76.87-3.11 3.03-1.35 2.17-2.15 5.82-.8 3.66-.8 9.23 0 5.58.8 9.23.8 3.66 2.15 5.83 1.35 2.16 3.11 3.03 1.75.87 3.64.87 1.91 0 3.69-.87 1.77-.87 3.14-3.03 1.37-2.17 2.18-5.83.82-3.65.82-9.23m50.23 0q0 6.71-1.44 11.67-1.43 4.95-3.97 8.18t-6 4.81-7.47 1.58q-4.02 0-7.44-1.58-3.43-1.58-5.95-4.81t-3.94-8.18q-1.42-4.96-1.42-11.67 0-6.74 1.42-11.68 1.42-4.93 3.94-8.16t5.95-4.81q3.42-1.58 7.44-1.58 4.01 0 7.47 1.58t6 4.81 3.97 8.16q1.44 4.94 1.44 11.68m-9.05 0q0-5.57-.82-9.23-.81-3.65-2.18-5.82-1.37-2.16-3.14-3.03-1.78-.87-3.69-.87-1.89 0-3.64.87-1.76.87-3.11 3.03-1.35 2.17-2.15 5.82-.8 3.66-.8 9.23 0 5.58.8 9.23.8 3.66 2.15 5.83 1.35 2.16 3.11 3.03 1.75.87 3.64.87 1.91 0 3.69-.87 1.77-.87 3.14-3.03 1.37-2.17 2.18-5.83.82-3.65.82-9.23m65.43 13.92-4.65 4.58-12.04-12.04-12.14 12.11-4.65-4.58 12.14-12.18-11.57-11.57 4.61-4.61 11.58 11.57 11.5-11.5 4.68 4.61-11.53 11.54zm48.6 5.18h9.23v6.57h-28.4v-6.57h10.4v-29.92q0-1.78.1-3.66l-7.38 6.18q-.64.49-1.26.62-.62.12-1.17.02-.55-.11-.98-.38-.42-.26-.64-.58l-2.77-3.8 15.66-13.31h7.21zm53.07-19.1q0 6.71-1.44 11.67-1.44 4.95-3.98 8.18-2.53 3.23-6 4.81-3.46 1.58-7.47 1.58t-7.44-1.58q-3.42-1.58-5.94-4.81t-3.94-8.18q-1.42-4.96-1.42-11.67 0-6.74 1.42-11.68 1.42-4.93 3.94-8.16t5.94-4.81q3.43-1.58 7.44-1.58t7.47 1.58q3.47 1.58 6 4.81 2.54 3.23 3.98 8.16 1.44 4.94 1.44 11.68m-9.05 0q0-5.57-.82-9.23-.82-3.65-2.18-5.82-1.37-2.16-3.15-3.03-1.77-.87-3.69-.87-1.88 0-3.64.87-1.75.87-3.1 3.03-1.35 2.17-2.15 5.82-.8 3.66-.8 9.23 0 5.58.8 9.23.8 3.66 2.15 5.83 1.35 2.16 3.1 3.03 1.76.87 3.64.87 1.92 0 3.69-.87 1.78-.87 3.15-3.03 1.36-2.17 2.18-5.83.82-3.65.82-9.23m50.23 0q0 6.71-1.44 11.67-1.44 4.95-3.98 8.18-2.53 3.23-6 4.81-3.46 1.58-7.47 1.58t-7.44-1.58q-3.42-1.58-5.94-4.81t-3.94-8.18q-1.42-4.96-1.42-11.67 0-6.74 1.42-11.68 1.42-4.93 3.94-8.16t5.94-4.81q3.43-1.58 7.44-1.58t7.47 1.58q3.47 1.58 6 4.81 2.54 3.23 3.98 8.16 1.44 4.94 1.44 11.68m-9.05 0q0-5.57-.82-9.23-.82-3.65-2.18-5.82-1.37-2.16-3.15-3.03-1.77-.87-3.69-.87-1.88 0-3.64.87-1.75.87-3.1 3.03-1.35 2.17-2.15 5.82-.8 3.66-.8 9.23 0 5.58.8 9.23.8 3.66 2.15 5.83 1.35 2.16 3.1 3.03 1.76.87 3.64.87 1.92 0 3.69-.87 1.78-.87 3.15-3.03 1.36-2.17 2.18-5.83.82-3.65.82-9.23m50.23 0q0 6.71-1.44 11.67-1.44 4.95-3.98 8.18-2.53 3.23-6 4.81-3.46 1.58-7.47 1.58t-7.44-1.58q-3.42-1.58-5.94-4.81t-3.94-8.18q-1.42-4.96-1.42-11.67 0-6.74 1.42-11.68 1.42-4.93 3.94-8.16t5.94-4.81q3.43-1.58 7.44-1.58t7.47 1.58q3.47 1.58 6 4.81 2.54 3.23 3.98 8.16 1.44 4.94 1.44 11.68m-9.05 0q0-5.57-.82-9.23-.82-3.65-2.18-5.82-1.37-2.16-3.15-3.03-1.77-.87-3.69-.87-1.88 0-3.64.87-1.75.87-3.1 3.03-1.35 2.17-2.15 5.82-.8 3.66-.8 9.23 0 5.58.8 9.23.8 3.66 2.15 5.83 1.35 2.16 3.1 3.03 1.76.87 3.64.87 1.92 0 3.69-.87 1.78-.87 3.15-3.03 1.36-2.17 2.18-5.83.82-3.65.82-9.23"/></svg>